<svg width="24" height="24" viewBox="0 0 24 24" fill="none" xmlns="http://www.w3.org/2000/svg"><path d="M13.4 7.6h-.5c0 .3.2.5.5.5v-.5Zm0-3.2h.5-.5ZM10.8 2v-.5c-.2 0-.4.1-.5.3l.5.2ZM7.3 9.2 7 9v.2h.4Zm0 8.8h-.5c0 .3.2.5.5.5V18Zm9.8 0v-.5.5Zm1.7-1.4h-.5.5ZM20 9.4l.5.1H20Zm-1.7-1.8v.5-.5ZM7.3 18v.5c.3 0 .5-.2.5-.5h-.5Zm0-8.8h.5c0-.3-.2-.5-.5-.5v.5ZM14 7.6V4.4h-1v3.2h1Zm0-3.2c0-1.6-1.5-2.9-3.1-2.9v1c1.2 0 2 .9 2 1.9h1Zm-3.6-2.6L7 9l.9.4 3.4-7.2-.9-.4ZM6.8 9.2V18h1V9.2h-1Zm.5 9.3h9.8v-1H7.3v1Zm9.8 0c1 0 2-.7 2.2-1.8l-1-.1c0 .5-.6 1-1.2.9v1Zm2.2-1.8 1.2-7.2-1-.1-1.2 7.2 1 .1Zm1.2-7.2a2 2 0 0 0-.6-1.7l-.7.7c.2.2.3.6.3.9l1 .1Zm-.6-1.7c-.4-.5-1-.7-1.7-.7v1c.4 0 .8.1 1 .4l.7-.7Zm-1.6-.7h-5v1h5v-1Zm-11 10.4H4.7v1h2.6v-1Zm-2.6 0c-.7 0-1.2-.5-1.2-1.1h-1c0 1.2 1 2.1 2.2 2.1v-1Zm-1.2-1.1v-5.6h-1v5.6h1Zm0-5.6c0-.6.5-1.1 1.2-1.1v-1c-1.2 0-2.2.9-2.2 2.1h1Zm1.2-1.1h2.6v-1H4.7v1Zm2.1-.5V18h1V9.2h-1Z" fill="#FF6C00"/></svg>