<svg width="24" height="24" viewBox="0 0 24 24" fill="none" xmlns="http://www.w3.org/2000/svg">
<path d="M3 6h18" stroke="#fff" stroke-linecap="round" stroke-linejoin="round"/>
<path d="M19.5 6a.5.5 0 0 0-1 0h1Zm-14 0a.5.5 0 0 0-1 0h1Zm2 0a.5.5 0 0 0 1 0h-1Zm8 0a.5.5 0 0 0 1 0h-1Zm3 0v14h1V6h-1Zm0 14c0 .8-.7 1.5-1.5 1.5v1c1.4 0 2.5-1.1 2.5-2.5h-1ZM17 21.5H7v1h10v-1Zm-10 0c-.8 0-1.5-.7-1.5-1.5h-1c0 1.4 1.1 2.5 2.5 2.5v-1ZM5.5 20V6h-1v14h1Zm3-14V4h-1v2h1Zm0-2c0-.8.7-1.5 1.5-1.5v-1A2.5 2.5 0 0 0 7.5 4h1ZM10 2.5h4v-1h-4v1Zm4 0c.8 0 1.5.7 1.5 1.5h1c0-1.4-1.1-2.5-2.5-2.5v1ZM15.5 4v2h1V4h-1Z" fill="#fff"/>
<path d="M10 11v6M14 11v6" stroke="#fff" stroke-linecap="round" stroke-linejoin="round"/>
</svg>